<svg width="125" height="58" viewBox="0 0 125 58" fill="none" xmlns="http://www.w3.org/2000/svg">
<path d="M114.92 57.4787C112.15 57.4787 109.378 57.4802 106.608 57.4755C106.266 57.4755 105.92 57.4583 105.585 57.4034C105.078 57.3219 104.827 57.0492 104.837 56.4896C104.865 54.7138 104.872 52.9379 104.835 51.162C104.823 50.5241 105.12 50.2482 105.684 50.1589C105.969 50.1134 106.262 50.1056 106.551 50.1056C112.12 50.1025 117.687 50.1025 123.256 50.1056C123.571 50.1056 123.891 50.1213 124.2 50.1777C124.729 50.2733 125.011 50.5476 124.999 51.1448C124.968 52.894 124.96 54.6448 124.999 56.3925C125.015 57.0711 124.7 57.3517 124.101 57.4316C123.789 57.474 123.469 57.4771 123.154 57.4771C120.409 57.4802 117.665 57.4787 114.921 57.4787H114.92ZM114.921 56.0272C116.003 56.0272 117.085 56.0335 118.167 56.0257C118.984 56.0194 119.801 56.021 120.617 55.9693C121.295 55.9254 121.661 55.5852 121.605 54.8407C121.555 54.1652 121.553 53.4802 121.607 52.8062C121.669 52.0351 121.303 51.6934 120.585 51.6197C120.297 51.5899 120.007 51.568 119.717 51.568C116.524 51.5649 113.333 51.5633 110.14 51.5711C109.747 51.5711 109.348 51.6009 108.961 51.673C108.464 51.7655 108.187 52.0492 108.217 52.604C108.25 53.2294 108.223 53.8564 108.223 54.4834C108.223 55.7953 108.426 56.0116 109.777 56.0241C111.492 56.0398 113.208 56.0272 114.921 56.0288V56.0272Z" fill="#F9F6ED"/>
<path d="M8.51326 49.9473C11.0205 49.9473 13.5293 49.9677 16.0366 49.9348C16.7477 49.9254 16.9995 50.1197 16.9774 50.8627C16.9235 52.7686 16.9219 54.6777 16.9774 56.5821C16.9995 57.3423 16.7208 57.5429 16.0223 57.4928C15.4189 57.4489 14.8091 57.4693 14.2009 57.4865C13.7257 57.5006 13.5151 57.2984 13.5562 56.8313C13.561 56.7796 13.5562 56.7263 13.5562 56.6746C13.5341 55.5408 12.957 54.974 11.8251 54.974C9.31785 54.974 6.80903 54.9928 4.30179 54.9614C3.61439 54.9536 3.37998 55.1714 3.39424 55.8627C3.42591 57.4834 3.39424 57.4834 1.7692 57.4834C0.600318 57.4834 0.0158758 56.905 0.0158758 55.7482C0.0158758 54.0758 0.0491368 52.4034 0.00162113 50.7326C-0.0142174 50.0774 0.242367 49.9332 0.831561 49.9379C3.39265 49.9583 5.95216 49.9457 8.51326 49.9457V49.9473ZM8.47049 53.7169C9.65522 53.7169 10.8399 53.7263 12.0247 53.7153C13.7463 53.6981 13.5056 53.9379 13.5737 52.1495C13.6038 51.3658 13.3012 51.1887 12.5679 51.1997C10.0417 51.2373 7.51384 51.2075 4.98601 51.2169C3.20417 51.2232 3.45126 51.0178 3.39899 52.8251C3.37998 53.4975 3.5748 53.7561 4.28436 53.7326C5.67816 53.6871 7.07512 53.7185 8.46891 53.7185L8.47049 53.7169Z" fill="#F9F6ED"/>
<path d="M65.3594 50.1056C67.8666 50.1056 70.3739 50.1213 72.8811 50.0946C73.5447 50.0884 73.8203 50.2624 73.8045 50.9787C73.7586 52.8846 73.7712 54.7921 73.7982 56.6981C73.8061 57.2765 73.6033 57.5084 73.0221 57.4849C72.3901 57.4583 71.7534 57.4536 71.123 57.4849C70.5164 57.5163 70.3565 57.2435 70.3675 56.6856C70.3945 55.1965 70.3517 53.7075 70.3881 52.22C70.404 51.5899 70.225 51.3329 69.5487 51.3392C66.7247 51.3658 63.9007 51.3642 61.0766 51.3392C60.4193 51.3345 60.2024 51.5617 60.2182 52.2106C60.2578 53.7247 60.2119 55.2404 60.2404 56.7545C60.2515 57.3109 60.0345 57.5006 59.4991 57.4818C58.8402 57.4583 58.1798 57.4661 57.5193 57.4787C57.0711 57.4865 56.8446 57.3423 56.8493 56.847C56.8683 54.8094 56.8763 52.7718 56.8493 50.7357C56.8414 50.0868 57.2342 50.1025 57.6761 50.104C60.2356 50.104 62.7967 50.104 65.3562 50.104L65.3594 50.1056Z" fill="#F9F6ED"/>
<path d="M38.3499 50.104C40.4327 50.104 42.5154 50.1056 44.5998 50.104C45.0734 50.104 45.4963 50.0868 45.4773 50.7765C45.4598 51.4395 45.0211 51.3705 44.6061 51.3705C41.6 51.3752 38.5938 51.3971 35.5893 51.358C34.7878 51.347 34.5312 51.5915 34.5645 52.3862C34.6247 53.8188 34.5629 55.2561 34.5914 56.6903C34.6025 57.2483 34.4457 57.5178 33.8391 57.4865C33.1818 57.4536 32.5213 57.4677 31.8624 57.4818C31.4079 57.4912 31.1956 57.336 31.2004 56.8454C31.2194 54.8109 31.2257 52.7749 31.1988 50.7404C31.1909 50.0962 31.5773 50.104 32.024 50.1056C34.1337 50.1072 36.2434 50.1056 38.3515 50.1056L38.3499 50.104Z" fill="#F9F6ED"/>
<path d="M88.6056 53.7608C88.6056 52.7718 88.6183 51.7827 88.5993 50.7937C88.5914 50.3486 88.7323 50.0993 89.2186 50.1056C89.9551 50.115 90.6915 50.1087 91.428 50.1087C91.8541 50.1087 92.0252 50.3094 92.022 50.7404C92.0061 52.7702 92.0046 54.8015 92.0204 56.8329C92.0236 57.3125 91.8177 57.4881 91.3631 57.4818C90.6535 57.4724 89.9424 57.4677 89.2328 57.4818C88.7497 57.4912 88.5929 57.2608 88.6009 56.8078C88.6183 55.7921 88.6072 54.7765 88.6056 53.7624V53.7608Z" fill="#F9F6ED"/>
<path d="M46.5822 5.55855C48.7619 6.21617 53.1922 7.12113 57.2794 8.86703C66.7635 12.9175 76.0831 17.3754 85.4708 21.6645C86.6556 22.2057 87.5541 22.971 87.0156 24.4317C86.4941 25.843 85.3773 25.811 84.0848 25.5898C61.3213 21.6034 42.5233 16.0543 21.6419 30.2979C16.2536 33.8712 10.8342 37.3979 5.4459 40.9712C3.29739 42.397 1.84332 42.4407 0.661358 41.0061C-0.432738 39.6763 -0.1663 37.7733 1.438 36.1292C10.7321 26.6199 20.0546 17.1339 31.3868 10.1008C35.3663 7.63326 39.4706 5.44798 46.5851 5.55855H46.5822Z" fill="#F9F6ED"/>
<path d="M61.191 0.553638C70.7629 0.998842 80.5644 2.07839 90.1618 4.60703C96.6612 6.31802 102.395 9.49846 106.607 14.998C112.446 22.6218 118.135 30.3649 123.886 38.0556C124.677 39.1118 125.505 40.4678 124.204 41.3699C123.43 41.9082 121.706 41.8674 120.887 41.3233C110.326 34.0196 100.269 25.8575 89.4646 18.9409C79.8785 12.871 68.9602 9.96695 58.365 6.35584C56.6643 5.77679 54.873 5.40142 53.2715 4.61867C52.5261 4.25494 51.585 3.01536 51.7154 2.38974C51.8685 1.65355 53.0476 0.713679 53.8554 0.632203C56.1797 0.396507 58.5407 0.547818 61.1881 0.547818L61.191 0.553638Z" fill="#F9F6ED"/>
</svg>
