<svg width="40" height="43" viewBox="0 0 40 43" fill="none" xmlns="http://www.w3.org/2000/svg">
<path d="M13.3545 7.60835C14.5894 6.94791 15.9312 6.66665 18.5685 6.66665H21.4315C24.0689 6.66665 25.4107 6.94791 26.6455 7.60835C27.6944 8.16923 28.4975 8.97235 29.0584 10.0211C29.7187 11.256 30 12.5978 30 15.2352V27.7648C30 30.4021 29.7187 31.744 29.0584 32.9788C28.4975 34.0276 27.6944 34.8308 26.6455 35.3916C25.4107 36.052 24.0689 36.3333 21.4315 36.3333H18.5685C15.9312 36.3333 14.5894 36.052 13.3545 35.3916C12.3057 34.8308 11.5026 34.0276 10.9417 32.9788C10.2813 31.744 10 30.4021 10 27.7648V15.2352C10 12.5978 10.2813 11.256 10.9417 10.0211C11.5026 8.97235 12.3057 8.16923 13.3545 7.60835ZM21.4315 3.33331H18.5685C15.212 3.33331 13.4121 3.79745 11.7825 4.66898C10.1528 5.54051 8.87389 6.81945 8.00235 8.44908C7.13082 10.0787 6.66669 11.8787 6.66669 15.2352V27.7648C6.66669 31.1213 7.13082 32.9213 8.00235 34.5508C8.87389 36.1805 10.1528 37.4595 11.7825 38.331C13.4121 39.2025 15.212 39.6666 18.5685 39.6666H21.4315C24.788 39.6666 26.588 39.2025 28.2175 38.331C29.8472 37.4595 31.1262 36.1805 31.9977 34.5508C32.8692 32.9213 33.3334 31.1213 33.3334 27.7648V15.2352C33.3334 11.8787 32.8692 10.0787 31.9977 8.44908C31.1262 6.81945 29.8472 5.54051 28.2175 4.66898C26.588 3.79745 24.788 3.33331 21.4315 3.33331ZM21.6667 12H18.3334V20.3333H21.6667V12ZM12.9297 24.93L20.0009 32.001L27.0719 24.93L24.7149 22.573L20.0009 27.287L15.2867 22.573L12.9297 24.93Z" fill="#F9F6ED"/>
</svg>
